<svg width="153" height="44" xmlns="http://www.w3.org/2000/svg" xmlns:xlink="http://www.w3.org/1999/xlink" xml:space="preserve" overflow="hidden"><g transform="translate(-249 -376)"><g><g><g><g><path d="M15.9467 11.4351 15.9467 1.38667 24.1333 1.38667 24.1333 32.1333 15.9467 32.1333 15.9467 30.2134C15.3597 30.7731 14.7009 31.2293 13.9714 31.5805 12.8167 32.1365 11.5177 32.4133 10.08 32.4133 7.98427 32.4133 6.12757 31.921 4.52093 30.9345 2.91423 29.9479 1.66606 28.5587 0.782224 26.777-0.0959259 25.0068-0.533333 22.9725-0.533333 20.68-0.533333 18.4138-0.102463 16.4124 0.762971 14.6815 1.63392 12.9396 2.86267 11.5837 4.44321 10.6241 6.02283 9.66507 7.852 9.18667 9.92 9.18667 11.3845 9.18667 12.7102 9.47024 13.8915 10.0396 14.6497 10.4049 15.3351 10.8705 15.9467 11.4351ZM11.84 25.7467C13.0729 25.7467 14.0439 25.3132 14.7943 24.4338 15.5604 23.536 15.9467 22.3592 15.9467 20.88 15.9467 19.3747 15.5605 18.1922 14.7966 17.3089 14.0464 16.4415 13.0745 16.0133 11.84 16.0133 10.606 16.0133 9.62699 16.4478 8.86304 17.3293 8.08517 18.2268 7.69333 19.4023 7.69333 20.88 7.69333 22.3577 8.08517 23.5332 8.86304 24.4307 9.62699 25.3122 10.606 25.7467 11.84 25.7467ZM40.4022 18.0667C40.3446 17.332 40.0633 16.7805 39.5554 16.378 38.9545 15.9018 38.0493 15.6533 36.8267 15.6533 35.9683 15.6533 34.9924 15.7937 33.9003 16.0763 32.8024 16.3605 31.6959 16.7746 30.5807 17.3193L30.0684 17.5694 27.699 11.7667 28.166 11.5545C29.9559 10.7409 31.6746 10.1363 33.3223 9.74133 34.9769 9.3448 36.6919 9.14667 38.4667 9.14667 41.5689 9.14667 44.0086 9.8688 45.7675 11.3298 47.5465 12.8075 48.4517 14.8836 48.48 17.52L48.48 32.1333 40.4133 32.1333 40.4133 30.4972C38.9187 31.8022 36.914 32.4533 34.4267 32.4533 32.0053 32.4533 30.0676 31.7883 28.6415 30.4487 27.2106 29.1045 26.4933 27.3295 26.4933 25.16 26.4933 22.9501 27.2755 21.1958 28.8325 19.9443 30.3634 18.7139 32.5243 18.0945 35.3067 18.0667L40.4022 18.0667ZM40.4133 24.2093 40.4133 22.9333 36.7067 22.9333C34.973 22.9333 34.24 23.4806 34.24 24.64 34.24 25.2338 34.4342 25.677 34.8312 26.0129 35.2465 26.3642 35.8379 26.5467 36.6267 26.5467 37.593 26.5467 38.4252 26.3148 39.136 25.8529 39.8065 25.417 40.2254 24.874 40.4133 24.2093ZM56.2267 8.13333C54.9931 8.13333 53.9552 7.71819 53.146 6.8936 52.3392 6.07152 51.9333 5.03004 51.9333 3.8 51.9333 2.5428 52.3395 1.49293 53.1496 0.682875 53.9589-0.126442 54.9952-0.533333 56.2267-0.533333 57.4581-0.533333 58.4944-0.126442 59.304 0.682875 60.1136 1.49293 60.52 2.5428 60.52 3.8 60.52 5.03004 60.1141 6.07152 59.3072 6.8936 58.4981 7.71819 57.4603 8.13333 56.2267 8.13333ZM60.36 9.42667 60.36 32.1333 52.2133 32.1333 52.2133 9.42667 60.36 9.42667ZM72.9467 32.4533C71.0539 32.4533 69.2405 32.1855 67.5088 31.6495 65.7685 31.1108 64.2181 30.3147 62.8597 29.2614L62.5173 28.996 65.2197 23.4465 65.7312 23.8022C66.9184 24.6279 68.1611 25.2656 69.4613 25.7161 70.7541 26.1641 71.9691 26.3867 73.1067 26.3867 73.7173 26.3867 74.1845 26.2909 74.5104 26.1124 74.7579 25.9766 74.8533 25.8256 74.8533 25.6 74.8533 25.2863 74.6805 25.0485 74.2523 24.8391 73.6891 24.5637 72.7776 24.2533 71.5141 23.9111 69.9739 23.4516 68.6997 22.9975 67.6896 22.5471 66.6272 22.0734 65.7019 21.3631 64.9168 20.4214 64.0987 19.4396 63.6933 18.1718 63.6933 16.64 63.6933 14.2882 64.5968 12.4158 66.3867 11.0733 68.1387 9.75925 70.384 9.10667 73.1067 9.10667 74.7285 9.10667 76.3301 9.32661 77.9099 9.76619 79.4901 10.206 80.9819 10.8522 82.3835 11.7043L82.8091 11.9628 79.9339 17.5212 79.4592 17.2724C76.7285 15.8422 74.512 15.1333 72.8267 15.1333 72.304 15.1333 71.9051 15.225 71.6235 15.3959 71.4112 15.5247 71.32 15.6909 71.32 15.96 71.32 16.2155 71.4848 16.4328 71.9051 16.643 72.4533 16.9171 73.3573 17.227 74.6165 17.5682 76.1824 18.0271 77.4885 18.4805 78.5365 18.9298 79.6416 19.4032 80.5957 20.121 81.3957 21.078 82.2277 22.0733 82.64 23.3613 82.64 24.92 82.64 27.2747 81.7141 29.1486 79.8816 30.4903 78.0901 31.8025 75.7733 32.4533 72.9467 32.4533ZM92.9307 31.0569 83.7541 9.42667 92.2528 9.42667 97.0112 22.4111 101.253 9.42667 109.501 9.42667 109.217 10.154 99.9339 33.9214C99.0709 36.0373 97.9029 37.62 96.4267 38.6565 94.9451 39.6964 93.1179 40.2133 90.96 40.2133 89.7019 40.2133 88.5232 40.0238 87.4256 39.644 86.328 39.264 85.2629 38.6684 84.2309 37.8598L83.8597 37.569 87.3851 31.7093 87.8635 32.1121C88.3307 32.5054 88.7648 32.7829 89.1632 32.9468 89.5515 33.1068 89.9627 33.1867 90.4 33.1867 91.3701 33.1867 92.0555 32.7546 92.5269 31.8339L92.9307 31.0569Z" stroke="#FFFFFF" stroke-width="1.06667" stroke-linecap="butt" stroke-linejoin="miter" stroke-miterlimit="4" stroke-opacity="1" fill="#5A0EF8" fill-rule="nonzero" fill-opacity="1" transform="matrix(1 0 0 1.00781 251.227 378.209)"/><path d="M125.04 32.6533C122.399 32.6533 120.069 32.1418 118.058 31.115 116.033 30.0819 114.463 28.6031 113.358 26.6864 112.256 24.7756 111.707 22.557 111.707 20.04L111.707 3.02667 120.093 3.02667 120.093 20.04C120.093 21.6668 120.564 22.9456 121.502 23.9077 122.439 24.8692 123.621 25.3467 125.08 25.3467 126.508 25.3467 127.639 24.8791 128.508 23.938 129.385 22.9898 129.827 21.6996 129.827 20.04L129.827 3.02667 138.213 3.02667 138.213 20.04C138.213 22.5549 137.678 24.7716 136.605 26.6813 135.527 28.5993 133.983 30.0795 131.985 31.1137 129.999 32.1415 127.682 32.6533 125.04 32.6533ZM149.467 32.1333 141.08 32.1333 141.08 3.02667 149.467 3.02667 149.467 32.1333Z" stroke="#FFFFFF" stroke-width="1.06667" stroke-linecap="butt" stroke-linejoin="miter" stroke-miterlimit="4" stroke-opacity="1" fill="#2D3748" fill-rule="nonzero" fill-opacity="1" transform="matrix(1 0 0 1.00781 251.227 378.209)"/></g></g></g></g></g></svg>